<mxfile host="app.diagrams.net" modified="2024-01-06T01:08:05.958Z" agent="Mozilla/5.0 (Windows NT 10.0; Win64; x64) AppleWebKit/537.36 (KHTML, like Gecko) Chrome/120.0.0.0 Safari/537.36" etag="8Bjn67C5kbZbhR69pqOk" version="22.1.17" type="device">
  <diagram name="Page-1" id="E-aqEsKcpCFOM5G_bo27">
    <mxGraphModel dx="1430" dy="794" grid="0" gridSize="10" guides="1" tooltips="1" connect="1" arrows="1" fold="1" page="1" pageScale="1" pageWidth="850" pageHeight="1100" math="0" shadow="0">
      <root>
        <mxCell id="0" />
        <mxCell id="1" parent="0" />
        <mxCell id="iDe31Pu97hCUr6PlDok6-54" value="Manager" style="swimlane;rounded=0;fillColor=none;" parent="1" vertex="1">
          <mxGeometry x="240" y="80" width="240" height="520" as="geometry" />
        </mxCell>
        <mxCell id="iDe31Pu97hCUr6PlDok6-12" value="" style="image;sketch=0;aspect=fixed;html=1;points=[];align=center;fontSize=12;image=img/lib/mscae/Docker.svg;" parent="iDe31Pu97hCUr6PlDok6-54" vertex="1">
          <mxGeometry x="39.25" y="439" width="50" height="41" as="geometry" />
        </mxCell>
        <mxCell id="iDe31Pu97hCUr6PlDok6-3" value="Docker Manager" style="swimlane;fillColor=none;" parent="1" vertex="1">
          <mxGeometry x="268" y="130" width="190" height="170" as="geometry" />
        </mxCell>
        <mxCell id="iDe31Pu97hCUr6PlDok6-2" value="" style="sketch=0;html=1;dashed=0;whitespace=wrap;fillColor=#2875E2;strokeColor=#ffffff;points=[[0.005,0.63,0],[0.1,0.2,0],[0.9,0.2,0],[0.5,0,0],[0.995,0.63,0],[0.72,0.99,0],[0.5,1,0],[0.28,0.99,0]];verticalLabelPosition=bottom;align=center;verticalAlign=top;shape=mxgraph.kubernetes.icon;prIcon=api" parent="iDe31Pu97hCUr6PlDok6-3" vertex="1">
          <mxGeometry x="48.13" y="60" width="93.75" height="90" as="geometry" />
        </mxCell>
        <mxCell id="iDe31Pu97hCUr6PlDok6-6" value="" style="image;sketch=0;aspect=fixed;html=1;points=[];align=center;fontSize=12;image=img/lib/mscae/Docker.svg;movable=1;resizable=1;rotatable=1;deletable=1;editable=1;locked=0;connectable=1;" parent="iDe31Pu97hCUr6PlDok6-3" vertex="1">
          <mxGeometry x="10" y="120" width="50" height="41" as="geometry" />
        </mxCell>
        <mxCell id="iDe31Pu97hCUr6PlDok6-13" style="edgeStyle=orthogonalEdgeStyle;rounded=0;orthogonalLoop=1;jettySize=auto;html=1;entryX=0.5;entryY=1;entryDx=0;entryDy=0;startArrow=classic;startFill=1;" parent="1" source="iDe31Pu97hCUr6PlDok6-10" target="iDe31Pu97hCUr6PlDok6-3" edge="1">
          <mxGeometry relative="1" as="geometry" />
        </mxCell>
        <mxCell id="iDe31Pu97hCUr6PlDok6-10" value="Docker DB" style="swimlane;fillColor=none;" parent="1" vertex="1">
          <mxGeometry x="268" y="400" width="190" height="170" as="geometry" />
        </mxCell>
        <mxCell id="iDe31Pu97hCUr6PlDok6-1" value="" style="verticalLabelPosition=bottom;html=1;verticalAlign=top;align=center;strokeColor=none;fillColor=#00BEF2;shape=mxgraph.azure.mysql_database;" parent="iDe31Pu97hCUr6PlDok6-10" vertex="1">
          <mxGeometry x="61.25" y="50" width="67.5" height="90" as="geometry" />
        </mxCell>
        <mxCell id="iDe31Pu97hCUr6PlDok6-22" value="Worker N" style="swimlane;startSize=23;fillColor=none;" parent="1" vertex="1">
          <mxGeometry x="688" y="460" width="161.88" height="140" as="geometry" />
        </mxCell>
        <mxCell id="U7m1ugG-zNqQuxMN_UuL-1" value="" style="fontColor=#000000;verticalAlign=middle;verticalLabelPosition=middle;labelPosition=right;align=left;html=1;outlineConnect=0;fillColor=#d6d6d6;strokeColor=#999;gradientColor=none;gradientDirection=north;strokeWidth=2;shape=stencil(fZHBDsIgDIafhuOWDfQBzNTTjt6XCriRbLDA5vTtLVRjtkQTUtqvP9AWJqrQwagZLyCMWk5MHBnnd/AGrj1ijpmOYMkLii0MmlBt7PxAckm2dq0jxbI6IU6sOLDoF19HVDfndevdbNVKsdF91GaANpYZvKTLu2kaAxOoO+OSyorcSGdvxirtc+kGpAomwC3ygHuPBYbs6sGqkAkEfPemTYJkQ5N0TR+by/Ylz0fbUl8Pevo9h+cqWjZT2k4t1vmnT1Gh4MdI0Elp+qqUeQE=);labelBackgroundColor=none;rounded=1;dashed=1;" parent="iDe31Pu97hCUr6PlDok6-22" vertex="1">
          <mxGeometry x="25.940000000000055" y="24.5" width="110" height="110" as="geometry" />
        </mxCell>
        <mxCell id="iDe31Pu97hCUr6PlDok6-31" style="rounded=0;orthogonalLoop=1;jettySize=auto;html=1;dashed=1;endArrow=none;endFill=0;strokeWidth=10;dashPattern=1 1;edgeStyle=orthogonalEdgeStyle;" parent="1" edge="1">
          <mxGeometry relative="1" as="geometry">
            <mxPoint x="768" y="400" as="sourcePoint" />
            <mxPoint x="768" y="460" as="targetPoint" />
          </mxGeometry>
        </mxCell>
        <mxCell id="iDe31Pu97hCUr6PlDok6-33" value="&lt;font style=&quot;font-size: 16px;&quot;&gt;User/API/Program&lt;/font&gt;" style="points=[[0.35,0,0],[0.98,0.51,0],[1,0.71,0],[0.67,1,0],[0,0.795,0],[0,0.65,0]];verticalLabelPosition=bottom;sketch=0;html=1;verticalAlign=top;aspect=fixed;align=center;pointerEvents=1;shape=mxgraph.cisco19.user;fillColor=#005073;strokeColor=none;" parent="1" vertex="1">
          <mxGeometry x="10" y="160" width="110" height="110" as="geometry" />
        </mxCell>
        <mxCell id="iDe31Pu97hCUr6PlDok6-35" style="edgeStyle=orthogonalEdgeStyle;rounded=0;orthogonalLoop=1;jettySize=auto;html=1;startArrow=none;startFill=0;exitX=1;exitY=0.71;exitDx=0;exitDy=0;exitPerimeter=0;entryX=0.024;entryY=0.54;entryDx=0;entryDy=0;entryPerimeter=0;jumpStyle=arc;" parent="1" source="iDe31Pu97hCUr6PlDok6-33" target="iDe31Pu97hCUr6PlDok6-2" edge="1">
          <mxGeometry relative="1" as="geometry">
            <mxPoint x="170" y="240" as="sourcePoint" />
            <mxPoint x="310" y="238" as="targetPoint" />
          </mxGeometry>
        </mxCell>
        <mxCell id="iDe31Pu97hCUr6PlDok6-37" value="&lt;font style=&quot;font-size: 10px;&quot;&gt;/task {GET, POST, DELETE}&lt;/font&gt;" style="edgeLabel;html=1;align=center;verticalAlign=middle;resizable=0;points=[];labelBackgroundColor=none;" parent="iDe31Pu97hCUr6PlDok6-35" vertex="1" connectable="0">
          <mxGeometry x="-0.2286" y="2" relative="1" as="geometry">
            <mxPoint x="3" y="-16" as="offset" />
          </mxGeometry>
        </mxCell>
        <mxCell id="rI7CtS2wXhdUxzjHf1ld-6" value="&lt;b&gt;:8080&lt;/b&gt;" style="rounded=0;whiteSpace=wrap;html=1;labelBackgroundColor=none;fillColor=#ededed;fillStyle=solid;gradientColor=none;movable=1;resizable=1;rotatable=1;deletable=1;editable=1;locked=0;connectable=1;" parent="1" vertex="1">
          <mxGeometry x="440" y="220.5" width="59" height="29.5" as="geometry" />
        </mxCell>
        <mxCell id="rI7CtS2wXhdUxzjHf1ld-10" style="edgeStyle=orthogonalEdgeStyle;rounded=0;jumpStyle=arc;orthogonalLoop=1;jettySize=auto;html=1;entryX=1;entryY=0.5;entryDx=0;entryDy=0;startArrow=none;startFill=0;" parent="1" target="rI7CtS2wXhdUxzjHf1ld-6" edge="1">
          <mxGeometry relative="1" as="geometry">
            <Array as="points">
              <mxPoint x="600" y="155" />
              <mxPoint x="600" y="235" />
            </Array>
            <mxPoint x="722.06" y="155" as="sourcePoint" />
          </mxGeometry>
        </mxCell>
        <mxCell id="rI7CtS2wXhdUxzjHf1ld-12" style="edgeStyle=orthogonalEdgeStyle;rounded=0;jumpStyle=arc;orthogonalLoop=1;jettySize=auto;html=1;entryX=1;entryY=0.5;entryDx=0;entryDy=0;startArrow=none;startFill=0;" parent="1" target="rI7CtS2wXhdUxzjHf1ld-6" edge="1">
          <mxGeometry relative="1" as="geometry">
            <Array as="points">
              <mxPoint x="600" y="325" />
              <mxPoint x="600" y="235" />
            </Array>
            <mxPoint x="722.06" y="325" as="sourcePoint" />
          </mxGeometry>
        </mxCell>
        <mxCell id="rI7CtS2wXhdUxzjHf1ld-14" style="edgeStyle=orthogonalEdgeStyle;rounded=0;jumpStyle=arc;orthogonalLoop=1;jettySize=auto;html=1;entryX=1;entryY=0.5;entryDx=0;entryDy=0;startArrow=none;startFill=0;" parent="1" target="rI7CtS2wXhdUxzjHf1ld-6" edge="1">
          <mxGeometry relative="1" as="geometry">
            <Array as="points">
              <mxPoint x="600" y="535" />
              <mxPoint x="600" y="235" />
            </Array>
            <mxPoint x="722.06" y="535" as="sourcePoint" />
          </mxGeometry>
        </mxCell>
        <mxCell id="U7m1ugG-zNqQuxMN_UuL-5" value="Worker 1" style="swimlane;startSize=23;fillColor=none;" parent="1" vertex="1">
          <mxGeometry x="688" y="80.5" width="161.88" height="140" as="geometry" />
        </mxCell>
        <mxCell id="U7m1ugG-zNqQuxMN_UuL-6" value="" style="fontColor=#000000;verticalAlign=middle;verticalLabelPosition=middle;labelPosition=right;align=left;html=1;outlineConnect=0;fillColor=#d6d6d6;strokeColor=#999;gradientColor=none;gradientDirection=north;strokeWidth=2;shape=stencil(fZHBDsIgDIafhuOWDfQBzNTTjt6XCriRbLDA5vTtLVRjtkQTUtqvP9AWJqrQwagZLyCMWk5MHBnnd/AGrj1ijpmOYMkLii0MmlBt7PxAckm2dq0jxbI6IU6sOLDoF19HVDfndevdbNVKsdF91GaANpYZvKTLu2kaAxOoO+OSyorcSGdvxirtc+kGpAomwC3ygHuPBYbs6sGqkAkEfPemTYJkQ5N0TR+by/Ylz0fbUl8Pevo9h+cqWjZT2k4t1vmnT1Gh4MdI0Elp+qqUeQE=);labelBackgroundColor=none;rounded=1;dashed=1;" parent="U7m1ugG-zNqQuxMN_UuL-5" vertex="1">
          <mxGeometry x="25.940000000000055" y="24.5" width="110" height="110" as="geometry" />
        </mxCell>
        <mxCell id="U7m1ugG-zNqQuxMN_UuL-7" value="Worker 2" style="swimlane;startSize=23;fillColor=none;" parent="1" vertex="1">
          <mxGeometry x="688" y="250" width="161.88" height="140" as="geometry" />
        </mxCell>
        <mxCell id="U7m1ugG-zNqQuxMN_UuL-8" value="" style="fontColor=#000000;verticalAlign=middle;verticalLabelPosition=middle;labelPosition=right;align=left;html=1;outlineConnect=0;fillColor=#d6d6d6;strokeColor=#999;gradientColor=none;gradientDirection=north;strokeWidth=2;shape=stencil(fZHBDsIgDIafhuOWDfQBzNTTjt6XCriRbLDA5vTtLVRjtkQTUtqvP9AWJqrQwagZLyCMWk5MHBnnd/AGrj1ijpmOYMkLii0MmlBt7PxAckm2dq0jxbI6IU6sOLDoF19HVDfndevdbNVKsdF91GaANpYZvKTLu2kaAxOoO+OSyorcSGdvxirtc+kGpAomwC3ygHuPBYbs6sGqkAkEfPemTYJkQ5N0TR+by/Ylz0fbUl8Pevo9h+cqWjZT2k4t1vmnT1Gh4MdI0Elp+qqUeQE=);labelBackgroundColor=none;rounded=1;dashed=1;" parent="U7m1ugG-zNqQuxMN_UuL-7" vertex="1">
          <mxGeometry x="25.940000000000055" y="24.5" width="110" height="110" as="geometry" />
        </mxCell>
      </root>
    </mxGraphModel>
  </diagram>
</mxfile>
